<svg width="414" height="350" viewBox="0 0 414 350" fill="none" xmlns="http://www.w3.org/2000/svg">
<rect width="414" height="350" fill="black"/>
<path d="M191.351 103.616V84.0344C194.089 84.2684 195.154 85.1266 195.991 85.9067C197.316 87.1415 197.969 89.4694 198.045 90.5877V99.1694C198.045 100.043 198.502 100.574 198.73 100.73C207.479 106.373 225.57 118.065 227.943 119.688C230.317 121.31 230.708 127.073 230.606 129.752C218.966 122.392 195.291 107.423 193.709 106.425C192.127 105.426 191.477 104.136 191.351 103.616Z" fill="#F4F4F4"/>
<path d="M220.336 111.652L213.489 107.205C216.456 105.229 222.527 101.182 223.075 100.808C223.622 100.433 223.81 99.7675 223.835 99.4815V90.1196C224.627 85.3138 228.679 84.0375 230.606 84V103.616C230.484 104.552 229.135 105.775 228.476 106.269L220.336 111.652Z" fill="white"/>
<path d="M229.617 108.921L223.455 112.588C222.846 113.087 223.201 113.628 223.455 113.836L229.541 117.425C230.15 117.675 230.505 117.217 230.606 116.957V109.467C230.606 108.781 229.947 108.817 229.617 108.921Z" fill="#0361EC"/>
<path d="M228.248 131.546L191.351 108.297C191.229 114.975 193.024 117.737 193.937 118.283L203.903 124.759C201.621 126.293 196.509 129.72 194.318 131.156C192.127 132.591 191.427 133.99 191.351 134.51V154.014C196.646 153.64 198.071 149.281 198.121 147.149C198.096 144.627 198.045 139.425 198.045 138.801C198.045 138.177 198.451 137.553 198.654 137.319L210.75 129.205C214.554 131.676 222.329 136.726 222.998 137.163C223.668 137.6 223.835 138.333 223.835 138.645V147.149C224.261 152.579 228.527 153.988 230.606 154.014V134.432C230.606 133.371 229.034 132.066 228.248 131.546Z" fill="white"/>
<path d="M192.264 120.546C191.655 120.421 191.401 120.858 191.351 121.092V128.503C191.351 129.065 192.01 129.153 192.34 129.127C194.242 127.983 198.167 125.601 198.654 125.227C199.141 124.852 198.755 124.394 198.502 124.212L192.264 120.546Z" fill="#0056D6"/>
<path d="M137.869 164.547H133V179.447H144.411V175.547H137.869V164.547Z" fill="url(#paint0_linear_1302_134)"/>
<path d="M151.106 179.447V164.547H155.975V179.604L151.106 179.447Z" fill="url(#paint1_linear_1302_134)"/>
<path d="M168.147 173.05V179.604H163.659V164.547H167.767L172.484 172.66L177.124 164.547H181.156V179.604H176.744V172.66L173.397 178.277H171.343L168.147 173.05Z" fill="url(#paint2_linear_1302_134)"/>
<path d="M213.793 168.525V164.547H200.252V168.525H204.588V179.604H209.533V168.525H213.793Z" fill="url(#paint3_linear_1302_134)"/>
<path d="M250.31 168.369V164.625H238.366V179.604H250.538V175.703H243.311V173.752H249.397V170.086H243.311V168.369H250.31Z" fill="url(#paint4_linear_1302_134)"/>
<path d="M267.96 169.227L269.405 165.483C264.156 162.986 257.765 164.156 257.081 168.525C256.396 172.894 261.037 173.752 263.243 174.142C265.008 174.454 265.196 175.157 265.069 175.469C263.73 176.842 260.048 175.521 258.374 174.689L256.853 178.433C265.373 182.022 269.557 178.823 269.938 175.079C270.314 171.378 266.753 170.649 264.099 170.105L264.004 170.086C261.874 169.649 261.747 169.019 261.95 168.759C262.984 167.261 266.388 168.447 267.96 169.227Z" fill="url(#paint5_linear_1302_134)"/>
<path d="M188.84 179.604V164.547H193.785V179.604H188.84Z" fill="url(#paint6_linear_1302_134)"/>
<path d="M225.205 175.703V164.547H220.26V179.604H231.823V175.703H225.205Z" fill="url(#paint7_linear_1302_134)"/>
<path d="M286.903 169.227L288.348 165.483C284.773 163.766 277.393 163.142 276.1 168.447C275.065 172.691 279.777 174.012 282.262 174.142C282.845 174.246 284.027 174.579 284.088 175.079C284.149 175.578 283.657 175.859 283.403 175.937C281.212 176.311 278.484 175.313 277.393 174.767L275.796 178.355C282.947 181.632 288.348 179.526 288.957 175.079C289.565 170.632 283.555 170.086 282.034 169.852C280.817 169.664 280.766 169.045 280.893 168.759C282.293 167.386 285.483 168.499 286.903 169.227Z" fill="url(#paint8_linear_1302_134)"/>
<path d="M141.04 202.226C139.925 202.226 138.885 202.023 137.921 201.616C136.972 201.209 136.143 200.636 135.435 199.898C134.727 199.16 134.177 198.309 133.785 197.344C133.409 196.365 133.22 195.318 133.22 194.203C133.22 193.088 133.409 192.048 133.785 191.084C134.177 190.105 134.72 189.254 135.413 188.53C136.121 187.807 136.949 187.242 137.899 186.835C138.848 186.429 139.872 186.225 140.972 186.225C142.162 186.225 143.225 186.436 144.159 186.858C145.108 187.28 145.937 187.86 146.645 188.598L145.515 189.728C144.972 189.126 144.317 188.658 143.549 188.327C142.78 187.98 141.921 187.807 140.972 187.807C140.098 187.807 139.292 187.965 138.554 188.282C137.831 188.598 137.19 189.05 136.633 189.638C136.091 190.21 135.669 190.888 135.367 191.672C135.081 192.44 134.938 193.284 134.938 194.203C134.938 195.122 135.089 195.973 135.39 196.757C135.691 197.54 136.113 198.226 136.656 198.813C137.198 199.386 137.838 199.83 138.577 200.147C139.315 200.463 140.121 200.621 140.995 200.621C141.989 200.621 142.871 200.448 143.639 200.102C144.422 199.755 145.085 199.28 145.628 198.678L146.758 199.83C146.065 200.569 145.236 201.156 144.272 201.593C143.308 202.015 142.23 202.226 141.04 202.226ZM157.245 202.226C156.145 202.226 155.121 202.023 154.171 201.616C153.237 201.194 152.416 200.621 151.708 199.898C151 199.16 150.442 198.309 150.036 197.344C149.644 196.365 149.448 195.318 149.448 194.203C149.448 193.073 149.644 192.026 150.036 191.062C150.427 190.097 150.977 189.254 151.685 188.53C152.394 187.807 153.215 187.242 154.149 186.835C155.083 186.429 156.1 186.225 157.2 186.225C158.3 186.225 159.317 186.429 160.251 186.835C161.2 187.242 162.029 187.807 162.737 188.53C163.445 189.254 163.995 190.105 164.387 191.084C164.778 192.048 164.974 193.096 164.974 194.226C164.974 195.341 164.778 196.388 164.387 197.367C163.995 198.331 163.445 199.175 162.737 199.898C162.044 200.621 161.23 201.194 160.296 201.616C159.362 202.023 158.345 202.226 157.245 202.226ZM157.2 200.621C158.375 200.621 159.415 200.343 160.319 199.785C161.238 199.228 161.953 198.467 162.466 197.503C162.993 196.538 163.257 195.438 163.257 194.203C163.257 193.284 163.106 192.44 162.805 191.672C162.503 190.888 162.081 190.21 161.539 189.638C160.997 189.05 160.356 188.598 159.618 188.282C158.895 187.965 158.089 187.807 157.2 187.807C156.04 187.807 155 188.086 154.081 188.643C153.177 189.186 152.461 189.939 151.934 190.903C151.422 191.868 151.166 192.968 151.166 194.203C151.166 195.122 151.316 195.973 151.618 196.757C151.919 197.54 152.341 198.226 152.883 198.813C153.426 199.386 154.066 199.83 154.804 200.147C155.543 200.463 156.341 200.621 157.2 200.621ZM169.403 202V186.451H170.578L171.052 188.417V202H169.403ZM180.16 202L170.329 188.666L170.578 186.451L180.386 199.785L180.16 202ZM180.16 202L179.663 200.124V186.451H181.335V202H180.16ZM186.514 202V186.451H187.689L188.163 188.417V202H186.514ZM197.271 202L187.44 188.666L187.689 186.451L197.497 199.785L197.271 202ZM197.271 202L196.774 200.124V186.451H198.446V202H197.271ZM203.625 202V186.451H205.274V202H203.625ZM204.709 202V200.486H213.862V202H204.709ZM204.709 194.768V193.299H213.139V194.768H204.709ZM204.709 187.965V186.451H213.727V187.965H204.709ZM224.852 202.226C223.737 202.226 222.697 202.023 221.733 201.616C220.784 201.209 219.955 200.636 219.247 199.898C218.539 199.16 217.989 198.309 217.597 197.344C217.22 196.365 217.032 195.318 217.032 194.203C217.032 193.088 217.22 192.048 217.597 191.084C217.989 190.105 218.531 189.254 219.224 188.53C219.932 187.807 220.761 187.242 221.71 186.835C222.659 186.429 223.684 186.225 224.784 186.225C225.974 186.225 227.036 186.436 227.97 186.858C228.92 187.28 229.748 187.86 230.456 188.598L229.326 189.728C228.784 189.126 228.129 188.658 227.36 188.327C226.592 187.98 225.733 187.807 224.784 187.807C223.91 187.807 223.104 187.965 222.366 188.282C221.642 188.598 221.002 189.05 220.445 189.638C219.902 190.21 219.48 190.888 219.179 191.672C218.893 192.44 218.75 193.284 218.75 194.203C218.75 195.122 218.9 195.973 219.202 196.757C219.503 197.54 219.925 198.226 220.467 198.813C221.01 199.386 221.65 199.83 222.388 200.147C223.126 200.463 223.933 200.621 224.806 200.621C225.801 200.621 226.682 200.448 227.451 200.102C228.234 199.755 228.897 199.28 229.439 198.678L230.569 199.83C229.876 200.569 229.048 201.156 228.083 201.593C227.119 202.015 226.042 202.226 224.852 202.226ZM238.566 202V186.881H240.238V202H238.566ZM233.097 187.965V186.451H245.707V187.965H233.097ZM249.749 202V186.451H251.399V202H249.749ZM263.604 202.226C262.504 202.226 261.479 202.023 260.53 201.616C259.596 201.194 258.775 200.621 258.067 199.898C257.358 199.16 256.801 198.309 256.394 197.344C256.002 196.365 255.807 195.318 255.807 194.203C255.807 193.073 256.002 192.026 256.394 191.062C256.786 190.097 257.336 189.254 258.044 188.53C258.752 187.807 259.573 187.242 260.507 186.835C261.441 186.429 262.458 186.225 263.558 186.225C264.658 186.225 265.675 186.429 266.609 186.835C267.559 187.242 268.387 187.807 269.095 188.53C269.803 189.254 270.353 190.105 270.745 191.084C271.137 192.048 271.333 193.096 271.333 194.226C271.333 195.341 271.137 196.388 270.745 197.367C270.353 198.331 269.803 199.175 269.095 199.898C268.402 200.621 267.589 201.194 266.655 201.616C265.72 202.023 264.703 202.226 263.604 202.226ZM263.558 200.621C264.734 200.621 265.773 200.343 266.677 199.785C267.596 199.228 268.312 198.467 268.824 197.503C269.351 196.538 269.615 195.438 269.615 194.203C269.615 193.284 269.464 192.44 269.163 191.672C268.862 190.888 268.44 190.21 267.898 189.638C267.355 189.05 266.715 188.598 265.977 188.282C265.253 187.965 264.447 187.807 263.558 187.807C262.398 187.807 261.359 188.086 260.44 188.643C259.536 189.186 258.82 189.939 258.293 190.903C257.78 191.868 257.524 192.968 257.524 194.203C257.524 195.122 257.675 195.973 257.976 196.757C258.277 197.54 258.699 198.226 259.242 198.813C259.784 199.386 260.424 199.83 261.163 200.147C261.901 200.463 262.7 200.621 263.558 200.621ZM275.761 202V186.451H276.936L277.411 188.417V202H275.761ZM286.519 202L276.688 188.666L276.936 186.451L286.745 199.785L286.519 202ZM286.519 202L286.021 200.124V186.451H287.694V202H286.519Z" fill="white"/>
<defs>
<linearGradient id="paint0_linear_1302_134" x1="210.978" y1="165.093" x2="211.001" y2="180" gradientUnits="userSpaceOnUse">
<stop stop-color="#0054D3"/>
<stop offset="1" stop-color="#0071F1"/>
</linearGradient>
<linearGradient id="paint1_linear_1302_134" x1="210.978" y1="165.093" x2="211.001" y2="180" gradientUnits="userSpaceOnUse">
<stop stop-color="#0054D3"/>
<stop offset="1" stop-color="#0071F1"/>
</linearGradient>
<linearGradient id="paint2_linear_1302_134" x1="210.978" y1="165.093" x2="211.001" y2="180" gradientUnits="userSpaceOnUse">
<stop stop-color="#0054D3"/>
<stop offset="1" stop-color="#0071F1"/>
</linearGradient>
<linearGradient id="paint3_linear_1302_134" x1="210.978" y1="165.093" x2="211.001" y2="180" gradientUnits="userSpaceOnUse">
<stop stop-color="#0054D3"/>
<stop offset="1" stop-color="#0071F1"/>
</linearGradient>
<linearGradient id="paint4_linear_1302_134" x1="240.724" y1="162.986" x2="240.884" y2="179.994" gradientUnits="userSpaceOnUse">
<stop stop-color="#0054D4"/>
<stop offset="1" stop-color="#0071F0"/>
</linearGradient>
<linearGradient id="paint5_linear_1302_134" x1="263.091" y1="161.894" x2="263.491" y2="181.476" gradientUnits="userSpaceOnUse">
<stop stop-color="#0054D3"/>
<stop offset="1" stop-color="#0071F1"/>
</linearGradient>
<linearGradient id="paint6_linear_1302_134" x1="210.978" y1="165.093" x2="211.001" y2="180" gradientUnits="userSpaceOnUse">
<stop stop-color="#0054D3"/>
<stop offset="1" stop-color="#0071F1"/>
</linearGradient>
<linearGradient id="paint7_linear_1302_134" x1="210.978" y1="165.093" x2="211.001" y2="180" gradientUnits="userSpaceOnUse">
<stop stop-color="#0054D3"/>
<stop offset="1" stop-color="#0071F1"/>
</linearGradient>
<linearGradient id="paint8_linear_1302_134" x1="284.621" y1="164.312" x2="284.941" y2="182.568" gradientUnits="userSpaceOnUse">
<stop stop-color="#0054D3"/>
<stop offset="1" stop-color="#0071F1"/>
</linearGradient>
</defs>
</svg>
