<svg width="178" height="133" viewBox="0 0 178 133" fill="none" xmlns="http://www.w3.org/2000/svg">
<path d="M67.0739 22.0981V0.0386982C70.185 0.302357 71.3949 1.2691 72.3455 2.14797C73.8501 3.53895 74.5925 6.16144 74.6789 7.42114V17.0886C74.6789 18.0729 75.1974 18.6706 75.4567 18.8463C85.3951 25.2034 105.946 38.3747 108.642 40.2027C111.339 42.0307 111.782 48.5226 111.667 51.54C98.4446 43.2494 71.5505 26.387 69.7529 25.262C67.9553 24.1371 67.2179 22.684 67.0739 22.0981Z" fill="#F4F4F4"/>
<path d="M100 31.1504L92.2223 26.1409C95.5928 23.9145 102.489 19.3561 103.111 18.9342C103.734 18.5124 103.947 17.7624 103.976 17.4402V6.89383C104.874 1.48004 109.478 0.042198 111.667 0V22.0981C111.529 23.1528 109.996 24.5297 109.247 25.0863L100 31.1504Z" fill="white"/>
<path d="M110.544 28.0744L103.543 32.2051C102.852 32.7675 103.255 33.3769 103.543 33.6112L110.457 37.654C111.149 37.9352 111.552 37.4196 111.667 37.1267V28.6896C111.667 27.9162 110.918 27.9572 110.544 28.0744Z" fill="#0361EC"/>
<path d="M108.988 53.5614L67.0739 27.3713C66.9356 34.8944 68.9751 38.0056 70.0122 38.6208L81.3333 45.9153C78.7407 47.6437 72.9332 51.5049 70.4443 53.122C67.9553 54.7391 67.1603 56.3152 67.0739 56.9011V78.8726C73.0887 78.4508 74.7077 73.5409 74.7653 71.1387C74.7365 68.297 74.6789 62.4379 74.6789 61.7348C74.6789 61.0317 75.1398 60.3286 75.3703 60.065L89.1112 50.9248C93.4322 53.7079 102.264 59.3971 103.025 59.8892C103.785 60.3814 103.976 61.2075 103.976 61.5591V71.1387C104.46 77.2555 109.305 78.8433 111.667 78.8726V56.8132C111.667 55.618 109.881 54.1473 108.988 53.5614Z" fill="white"/>
<path d="M68.111 41.1695C67.4196 41.0288 67.1315 41.521 67.0739 41.7847V50.1339C67.0739 50.7666 67.8229 50.8662 68.1974 50.8369C70.3579 49.5479 74.8172 46.8645 75.3703 46.4426C75.9234 46.0208 75.4855 45.5052 75.1975 45.3001L68.111 41.1695Z" fill="#0056D6"/>
<path d="M6.32 90.7373H0.789062V107.524H13.7522V103.129H6.32V90.7373Z" fill="url(#paint0_linear_1275_149)"/>
<path d="M21.3572 107.524V90.7373H26.8882V107.699L21.3572 107.524Z" fill="url(#paint1_linear_1275_149)"/>
<path d="M40.7155 100.317V107.699H35.6167V90.7373H40.2834L45.6415 99.8774L50.9132 90.7373H55.4935V107.699H50.4811V99.8774L46.6786 106.205H44.3452L40.7155 100.317Z" fill="url(#paint2_linear_1275_149)"/>
<path d="M92.5681 95.2195V90.7373H77.1852V95.2195H82.1112V107.699H87.7285V95.2195H92.5681Z" fill="url(#paint3_linear_1275_149)"/>
<path d="M134.05 95.0437V90.8252H120.482V107.699H134.309V103.305H126.099V101.108H133.013V96.9772H126.099V95.0437H134.05Z" fill="url(#paint4_linear_1275_149)"/>
<path d="M154.1 96.0105L155.742 91.7919C149.779 88.9796 142.519 90.2978 141.742 95.2195C140.964 100.141 146.235 101.108 148.742 101.547C150.747 101.899 150.96 102.69 150.816 103.041C149.295 104.588 145.112 103.1 143.211 102.162L141.482 106.381C151.161 110.424 155.915 106.82 156.347 102.602C156.774 98.4336 152.729 97.6117 149.714 96.9993L149.606 96.9772C147.186 96.485 147.042 95.7761 147.273 95.4831C148.448 93.7957 152.314 95.1316 154.1 96.0105Z" fill="url(#paint5_linear_1275_149)"/>
<path d="M64.222 107.699V90.7373H69.8394V107.699H64.222Z" fill="url(#paint6_linear_1275_149)"/>
<path d="M105.531 103.305V90.7373H99.9139V107.699H113.05V103.305H105.531Z" fill="url(#paint7_linear_1275_149)"/>
<path d="M175.619 96.0105L177.261 91.7919C173.199 89.8584 164.816 89.1553 163.347 95.1316C162.172 99.9126 167.524 101.401 170.347 101.547C171.009 101.664 172.352 102.039 172.421 102.602C172.49 103.164 171.931 103.481 171.643 103.569C169.154 103.991 166.055 102.866 164.816 102.25L163.001 106.293C171.125 109.984 177.261 107.611 177.952 102.602C178.643 97.5924 171.816 96.9772 170.088 96.7135C168.705 96.5026 168.647 95.8054 168.791 95.4831C170.381 93.9363 174.005 95.1902 175.619 96.0105Z" fill="url(#paint8_linear_1275_149)"/>
<path d="M14.0602 118.223L15.2891 116.994C12.8312 114.733 10.0866 114.25 9.0216 114.291C2.99984 114.414 0.419009 118.961 0.0503297 122.156C-0.31835 125.351 1.27926 131.004 6.80945 132.233C11.2336 133.216 14.3059 131.086 15.2891 129.898L14.0602 128.546C11.8973 130.513 9.47218 130.758 8.52999 130.635C0.787719 130.513 -0.195426 119.944 5.08898 116.994C9.3165 114.635 12.8312 116.83 14.0602 118.223Z" fill="white"/>
<path d="M36.181 124.245C36.3776 116.478 30.5279 114.373 27.5785 114.291V116.011C33.379 116.798 34.4195 121.5 34.2147 123.753C33.6248 129.652 29.3809 130.881 27.3327 130.758C21.9254 130.562 20.4916 125.843 20.4507 123.508C20.549 117.609 25.0796 116.052 27.3327 116.011V114.291C19.8362 114.659 18.4844 121.05 18.4844 123.508C18.4844 125.966 20.3278 132.602 27.8243 132.479C33.8214 132.381 35.8942 126.949 36.181 124.245Z" fill="white"/>
<path d="M42.6943 114.536H41.3425V132.233H43.063V118.223L53.6318 132.233H54.8607V114.536H53.0173V128.546L42.6943 114.536Z" fill="white"/>
<path d="M74.4007 114.536H72.4345V128.546L61.9885 114.536H60.7596V132.233H62.7259V118.223L73.1718 132.233H74.4007V114.536Z" fill="white"/>
<path d="M91.8516 116.134V114.536H80.4225V132.233H91.8516V130.513H82.2659V123.999H91.1142V122.279H82.2659V116.134H91.8516Z" fill="white"/>
<path d="M109.794 118.223L111.023 116.994C108.467 114.733 105.616 114.25 104.51 114.291C98.3649 114.291 96.1528 119.329 95.7841 121.664C95.4155 123.999 95.4155 130.144 101.56 131.987C106.476 133.462 109.917 131.127 111.023 129.775L109.794 128.546C107.041 131.397 103.485 130.799 102.052 130.144C95.1697 127.317 97.3818 117.977 102.052 116.503C105.788 115.323 108.77 117.158 109.794 118.223Z" fill="white"/>
<path d="M128.474 116.134V114.536H114.095V116.134H120.24V132.233H122.206V116.134H128.474Z" fill="white"/>
<path d="M134.864 114.536H133.144V132.233H134.864V114.536Z" fill="white"/>
<path d="M139.903 123.876C140.001 116.109 145.843 114.25 148.751 114.291V116.011C142.754 116.404 141.664 121.418 141.869 123.876C142.754 129.775 147.153 130.84 149.243 130.635C154.552 130.144 155.797 125.515 155.756 123.262C155.461 117.56 151.045 116.052 148.874 116.011V114.291C155.854 114.782 157.681 120.476 157.722 123.262C157.329 130.734 151.741 132.52 148.997 132.479C142.311 132.381 140.149 126.703 139.903 123.876Z" fill="white"/>
<path d="M164.113 114.536H162.761V132.233H164.727V118.223L175.05 132.233H176.402V114.536H174.436V128.669L164.113 114.536Z" fill="white"/>
<defs>
<linearGradient id="paint0_linear_1275_149" x1="89.3705" y1="91.3525" x2="89.3958" y2="108.146" gradientUnits="userSpaceOnUse">
<stop stop-color="#0054D3"/>
<stop offset="1" stop-color="#0071F1"/>
</linearGradient>
<linearGradient id="paint1_linear_1275_149" x1="89.3705" y1="91.3525" x2="89.3958" y2="108.146" gradientUnits="userSpaceOnUse">
<stop stop-color="#0054D3"/>
<stop offset="1" stop-color="#0071F1"/>
</linearGradient>
<linearGradient id="paint2_linear_1275_149" x1="89.3705" y1="91.3525" x2="89.3958" y2="108.146" gradientUnits="userSpaceOnUse">
<stop stop-color="#0054D3"/>
<stop offset="1" stop-color="#0071F1"/>
</linearGradient>
<linearGradient id="paint3_linear_1275_149" x1="89.3705" y1="91.3525" x2="89.3958" y2="108.146" gradientUnits="userSpaceOnUse">
<stop stop-color="#0054D3"/>
<stop offset="1" stop-color="#0071F1"/>
</linearGradient>
<linearGradient id="paint4_linear_1275_149" x1="123.161" y1="88.9795" x2="123.34" y2="108.139" gradientUnits="userSpaceOnUse">
<stop stop-color="#0054D4"/>
<stop offset="1" stop-color="#0071F0"/>
</linearGradient>
<linearGradient id="paint5_linear_1275_149" x1="148.569" y1="87.7491" x2="149.016" y2="109.808" gradientUnits="userSpaceOnUse">
<stop stop-color="#0054D3"/>
<stop offset="1" stop-color="#0071F1"/>
</linearGradient>
<linearGradient id="paint6_linear_1275_149" x1="89.3705" y1="91.3525" x2="89.3958" y2="108.146" gradientUnits="userSpaceOnUse">
<stop stop-color="#0054D3"/>
<stop offset="1" stop-color="#0071F1"/>
</linearGradient>
<linearGradient id="paint7_linear_1275_149" x1="89.3705" y1="91.3525" x2="89.3958" y2="108.146" gradientUnits="userSpaceOnUse">
<stop stop-color="#0054D3"/>
<stop offset="1" stop-color="#0071F1"/>
</linearGradient>
<linearGradient id="paint8_linear_1275_149" x1="173.026" y1="90.4736" x2="173.383" y2="111.039" gradientUnits="userSpaceOnUse">
<stop stop-color="#0054D3"/>
<stop offset="1" stop-color="#0071F1"/>
</linearGradient>
</defs>
</svg>
