<svg width="16" height="16" viewBox="0 0 15 15" fill="none" xmlns="http://www.w3.org/2000/svg">
<path d="M3.01667 6.49167C4.21667 8.85 6.15 10.775 8.50833 11.9833L10.3417 10.15C10.5667 9.925 10.9 9.85 11.1917 9.95C12.125 10.2583 13.1333 10.425 14.1667 10.425C14.625 10.425 15 10.8 15 11.2583V14.1667C15 14.625 14.625 15 14.1667 15C6.34167 15 0 8.65833 0 0.833333C0 0.375 0.375 0 0.833333 0H3.75C4.20833 0 4.58333 0.375 4.58333 0.833333C4.58333 1.875 4.75 2.875 5.05833 3.80833C5.15 4.1 5.08333 4.425 4.85 4.65833L3.01667 6.49167Z" fill="#F3F4F4"/>
</svg>
